<svg width="54" height="17" viewBox="0 0 54 17" fill="none" xmlns="http://www.w3.org/2000/svg">
<path d="M1.13657 6.48771C18.2279 6.41337 18.2011 6.5156 35.2816 6.98537C36.1157 7.00831 44.1571 7.0195 44.7398 6.48774" stroke="#2B4D49" stroke-linecap="round" stroke-linejoin="round"/>
<path d="M38.4365 2.81623C42.4412 3.27539 46.4458 3.73456 50.4504 4.19372C52.6343 4.44413 46.0761 3.5986 43.9586 2.94928C41.6785 2.25008 31.812 -0.21747 39.8179 1.37428C41.6412 1.7368 49.5203 4.10358 49.0857 3.98724C47.0816 3.45072 45.3853 2.71278 43.2881 2.47232C40.697 2.17522 52.5385 2.61006 53.4288 3.83508C54.2136 4.91491 45.9465 10.3398 45.4359 10.7203C44.5256 11.3988 39.4466 14.6346 39.7641 14.671" stroke="#2B4D49" stroke-linecap="round" stroke-linejoin="round"/>
</svg>
