<svg width="18" height="23" viewBox="0 0 18 23" fill="none" xmlns="http://www.w3.org/2000/svg">
<path d="M16.9421 5.88599H13.7503V4.61348C13.7503 2.20264 11.7398 0.248047 9.26012 0.248047C6.78024 0.248047 4.7698 2.20264 4.7698 4.61348V5.88599H1.31427C1.029 5.88677 0.797685 6.11135 0.796875 6.38901V19.8573C0.797523 21.246 1.95525 22.3716 3.38351 22.3721H14.8779C16.3063 22.3716 17.464 21.246 17.4643 19.8573V6.38901C17.4611 6.11041 17.2283 5.88646 16.9421 5.88599ZM5.79924 4.60844C5.79924 2.75306 7.34655 1.24873 9.25478 1.24873C11.1635 1.24873 12.7105 2.75306 12.7105 4.60844V5.88095H5.79924V4.60844ZM16.4247 19.8573C16.4221 20.6898 15.7288 21.3638 14.8729 21.3662H3.37848C2.52221 21.3638 1.8289 20.6898 1.82647 19.8573V6.89187H4.76462V8.93875C4.76462 9.21656 4.99642 9.44177 5.28185 9.44177C5.5676 9.44177 5.79924 9.21656 5.79924 8.93875V6.89187H12.7157V8.93875C12.7157 9.21656 12.9473 9.44177 13.2331 9.44177C13.5185 9.44177 13.7503 9.21656 13.7503 8.93875V6.89187H16.4247V19.8573Z" fill="white"/>
</svg>
