<svg width="50" height="54" viewBox="0 0 50 54" fill="none" xmlns="http://www.w3.org/2000/svg">
<path d="M28.5964 30.609C28.0726 30.3595 27.4414 30.5736 27.187 31.088L21.3836 42.8168C21.1291 43.3311 21.3476 43.9505 21.8716 44.2002C22.0201 44.2709 22.177 44.3044 22.3315 44.3044C22.7227 44.3044 23.0986 44.0899 23.281 43.7212L29.0844 31.9924C29.3389 31.4781 29.1203 30.8588 28.5964 30.609Z" fill="#7E8D90"/>
<path d="M22.4919 30.0279C21.1758 28.7361 19.0342 28.7361 17.7181 30.0279C16.4019 31.3197 16.4019 33.4216 17.7181 34.7133C18.3761 35.3592 19.2405 35.682 20.1049 35.682C20.9694 35.682 21.8338 35.3591 22.4919 34.7132C23.8079 33.4215 23.8079 31.3197 22.4919 30.0279ZM21.0004 33.2493C20.5068 33.7339 19.7034 33.734 19.2096 33.2493C18.7159 32.7648 18.7159 31.9764 19.2096 31.4918C19.4564 31.2495 19.7807 31.1284 20.1049 31.1284C20.4291 31.1284 20.7534 31.2495 21.0003 31.4917C21.494 31.9764 21.494 32.7649 21.0004 33.2493Z" fill="#7E8D90"/>
<path d="M30.398 39.1602C29.4963 39.1602 28.6487 39.5048 28.011 40.1305C26.6949 41.4223 26.6949 43.5242 28.011 44.8159C28.6486 45.4417 29.4963 45.7863 30.398 45.7863C31.2996 45.7863 32.1473 45.4417 32.7849 44.8159C34.101 43.5242 34.101 41.4223 32.7849 40.1305C32.1473 39.5048 31.2996 39.1602 30.398 39.1602ZM31.2932 43.3519C31.054 43.5867 30.7361 43.7159 30.398 43.7159C30.0598 43.7159 29.7418 43.5866 29.5027 43.3518C29.0089 42.8673 29.0089 42.0789 29.5027 41.5943C29.7419 41.3596 30.0598 41.2304 30.398 41.2304C30.7362 41.2304 31.0542 41.3597 31.2932 41.5943C31.787 42.0789 31.787 42.8674 31.2932 43.3519Z" fill="#7E8D90"/>
<path d="M46.5752 10.0938H37.0474C37.5033 9.39626 37.769 8.56803 37.769 7.67966V5.46878C37.769 2.9961 35.7193 0.984375 33.1999 0.984375C31.1109 0.984375 29.1807 2.09655 28.1623 3.88695L25.2515 9.00508L22.3405 3.88695C21.3224 2.09655 19.392 0.984375 17.303 0.984375C14.7837 0.984375 12.734 2.9961 12.734 5.46878V7.67956C12.734 8.56803 12.9997 9.39616 13.4556 10.0936H3.92769C2.3098 10.0938 0.993652 11.3855 0.993652 12.9735V20.0499C0.993652 21.3568 1.8855 22.4624 3.10303 22.813V50.8789C3.10303 52.5913 4.52243 53.9844 6.26709 53.9844H44.2358C45.9805 53.9844 47.3999 52.5913 47.3999 50.8789V22.8131C48.6174 22.4625 49.5093 21.3569 49.5093 20.05V12.9736C49.5093 11.3855 48.1931 10.0938 46.5752 10.0938ZM30.0042 4.89602C30.6502 3.76025 31.8747 3.05469 33.1999 3.05469C34.5561 3.05469 35.6595 4.13767 35.6595 5.46878V7.67956C35.6595 9.01067 34.5561 10.0936 33.1999 10.0936H27.048L30.0042 4.89602ZM28.8374 20.8594H21.6655V12.1641H28.8374V20.8594ZM14.8433 7.67966V5.46878C14.8433 4.13767 15.9467 3.05469 17.3029 3.05469C18.6281 3.05469 19.8527 3.76025 20.4986 4.89602L23.4548 10.0938H17.3029C15.9467 10.0938 14.8433 9.01077 14.8433 7.67966ZM3.10303 12.9735C3.10303 12.5271 3.47301 12.1641 3.92769 12.1641H19.5562V20.8594H3.92769C3.47291 20.8594 3.10303 20.4962 3.10303 20.05V12.9735ZM47.3999 20.05C47.3999 20.4963 47.0299 20.8594 46.5752 20.8594H43.4976C42.9152 20.8594 42.4429 21.3228 42.4429 21.8945C42.4429 22.4662 42.9152 22.9297 43.4976 22.9297H45.2905V50.8789C45.2905 51.4497 44.8174 51.9141 44.2358 51.9141H6.26709C5.68553 51.9141 5.2124 51.4497 5.2124 50.8789V22.9297H34.0054C34.5878 22.9297 35.0601 22.4662 35.0601 21.8945C35.0601 21.3228 34.5878 20.8594 34.0054 20.8594H30.9468V12.1641H46.5752C47.03 12.1641 47.3999 12.5272 47.3999 12.9735V20.05Z" fill="#7E8D90"/>
<path d="M38.7515 20.8594C38.4741 20.8594 38.202 20.9701 38.0058 21.1627C37.8096 21.3552 37.6968 21.6223 37.6968 21.8945C37.6968 22.1668 37.8095 22.4338 38.0058 22.6264C38.2021 22.8189 38.473 22.9297 38.7515 22.9297C39.0288 22.9297 39.301 22.8189 39.497 22.6264C39.6932 22.4338 39.8062 22.1668 39.8062 21.8945C39.8062 21.6223 39.6933 21.3552 39.497 21.1627C39.301 20.9701 39.0288 20.8594 38.7515 20.8594Z" fill="#7E8D90"/>
</svg>
