<svg width="50" height="54" viewBox="0 0 50 54" fill="none" xmlns="http://www.w3.org/2000/svg">
<mask id="path-1-inside-1" fill="white">
<path d="M27.106 13.2849C27.1527 12.984 27.1917 12.6811 27.2126 12.375C27.2327 12.0803 27.0892 11.7896 26.8573 11.6067C17.4566 4.18765 12.3697 18.5188 3.37852 13.1646C2.6484 12.7298 1.68806 13.2104 1.89378 14.0349C2.54983 16.6642 4.39875 18.9325 6.94962 20.4519"/>
</mask>
<path d="M27.106 13.2849C27.1527 12.984 27.1917 12.6811 27.2126 12.375C27.2327 12.0803 27.0892 11.7896 26.8573 11.6067C17.4566 4.18765 12.3697 18.5188 3.37852 13.1646C2.6484 12.7298 1.68806 13.2104 1.89378 14.0349C2.54983 16.6642 4.39875 18.9325 6.94962 20.4519" fill="#F3F3F3"/>
<path d="M1.89378 14.0349L0.923527 14.277L1.89378 14.0349ZM28.0941 13.4384C28.1434 13.1212 28.1867 12.7878 28.2102 12.443L26.2149 12.307C26.1966 12.5744 26.162 12.8467 26.1178 13.1314L28.0941 13.4384ZM27.4768 10.8217C24.947 8.82517 22.6093 8.22992 20.3762 8.47931C18.2129 8.7209 16.2534 9.75005 14.4783 10.7374C12.6394 11.7602 11.0037 12.7321 9.27445 13.1668C7.6236 13.5819 5.8942 13.4988 3.89016 12.3054L2.86687 14.0238C5.35842 15.5075 7.63658 15.6408 9.76207 15.1065C11.8092 14.5918 13.7185 13.4486 15.4504 12.4852C17.2461 11.4865 18.8828 10.6585 20.5982 10.4669C22.2439 10.2832 24.0673 10.6787 26.2378 12.3917L27.4768 10.8217ZM0.923527 14.277C1.65505 17.2088 3.70012 19.6804 6.43789 21.311L7.46136 19.5928C5.09738 18.1847 3.44461 16.1197 2.86403 13.7928L0.923527 14.277ZM3.89016 12.3054C3.22073 11.9067 2.41924 11.911 1.80159 12.2522C1.14245 12.6164 0.699459 13.379 0.923527 14.277L2.86403 13.7928C2.86343 13.7904 2.86704 13.8041 2.86474 13.8303C2.86242 13.8568 2.85487 13.8865 2.84126 13.9155C2.81358 13.9743 2.77724 13.9981 2.76883 14.0028C2.7615 14.0068 2.76981 14.0007 2.7927 14.001C2.81265 14.0014 2.83827 14.0067 2.86687 14.0238L3.89016 12.3054ZM28.2102 12.443C28.2551 11.7855 27.9402 11.1874 27.4768 10.8217L26.2378 12.3917C26.232 12.387 26.2283 12.3825 26.2247 12.375C26.2208 12.3667 26.2124 12.3438 26.2149 12.307L28.2102 12.443Z" fill="#A23C39" mask="url(#path-1-inside-1)"/>
<path d="M26.4838 9.90464C26.509 10.0061 26.4943 10.0723 26.4736 10.1162C26.4511 10.1641 26.4072 10.2142 26.3349 10.2542C26.185 10.337 25.9517 10.352 25.7389 10.2253C23.3692 8.81415 21.2283 8.69336 19.2215 9.19788C17.4526 9.64259 15.7862 10.5769 14.19 11.4719C14.0107 11.5724 13.8323 11.6724 13.6548 11.7712C11.8646 12.7671 10.1475 13.6453 8.32076 13.8494C6.52889 14.0496 4.57771 13.6042 2.31835 11.8203C2.20335 11.7295 2.14226 11.59 2.14858 11.4704C2.42641 6.20781 7.73626 1.86377 14.433 1.86377C20.4448 1.86377 25.3589 5.37296 26.4838 9.90464Z" fill="#F3F3F3" stroke="#A23C39"/>
<path d="M48.3984 32.8626C48.5164 32.9585 48.5836 33.1077 48.58 33.2356C48.2889 43.4683 38.0914 51.837 25.3576 51.837C13.3084 51.837 3.51755 44.336 2.26504 34.8586C2.23986 34.668 2.32657 34.5328 2.4742 34.4573C2.63167 34.3768 2.84828 34.3753 3.03584 34.5092C7.58064 37.7518 11.6393 38.3438 15.4463 37.6041C19.0154 36.9106 22.3405 35.047 25.5798 33.2314C25.756 33.1326 25.9319 33.034 26.1076 32.9357C29.5479 31.0116 32.907 29.2124 36.5144 28.7763C40.082 28.3451 43.9477 29.2445 48.3984 32.8626Z" fill="#F3F3F3" stroke="#A23C39"/>
<path d="M48.45 30.7054C48.4752 30.896 48.3885 31.0313 48.2409 31.1067C48.0834 31.1873 47.8668 31.1887 47.6793 31.0549C43.1345 27.8123 39.0759 27.2203 35.2689 27.96C31.6997 28.6535 28.3746 30.5171 25.1353 32.3327C24.9592 32.4315 24.7832 32.5301 24.6075 32.6283C21.1672 34.5525 17.8081 36.3517 14.2007 36.7878C10.6331 37.219 6.76747 36.3196 2.31675 32.7015C2.19818 32.6051 2.1315 32.4569 2.13511 32.3297C2.25489 28.1045 4.05258 24.2045 7.02632 21.0773C9.14781 22.2614 11.6893 22.9549 14.4247 22.9549C20.7223 22.9549 26.0679 19.3033 27.3974 14.2996C27.4775 13.9981 27.731 13.8296 27.9617 13.8508C38.801 14.845 47.2889 21.9259 48.45 30.7054ZM6.69371 20.8856C6.69313 20.8853 6.69254 20.885 6.69196 20.8846L6.69212 20.8847C6.69265 20.885 6.69318 20.8853 6.69371 20.8856Z" fill="#F3F3F3" stroke="#A23C39"/>
<mask id="path-6-inside-2" fill="white">
<path d="M6.94619 20.4512C9.05103 21.7035 11.6304 22.4549 14.4296 22.4549C20.9286 22.4549 26.2852 18.4562 27.1069 13.2842"/>
</mask>
<path d="M6.94619 20.4512C9.05103 21.7035 11.6304 22.4549 14.4296 22.4549C20.9286 22.4549 26.2852 18.4562 27.1069 13.2842" fill="#F3F3F3"/>
<path d="M6.43487 21.3106C8.69571 22.6557 11.452 23.4549 14.4296 23.4549L14.4296 21.4549C11.8089 21.4549 9.40635 20.7513 7.45752 19.5918L6.43487 21.3106ZM14.4296 23.4549C21.2816 23.4549 27.1757 19.2241 28.0945 13.4411L26.1193 13.1273C25.3947 17.6883 20.5757 21.4549 14.4296 21.4549L14.4296 23.4549Z" fill="#A23C39" mask="url(#path-6-inside-2)"/>
<path d="M1.24942 11.9094C1.24942 5.96463 7.07193 0.984374 14.4243 0.984374C21.7766 0.984375 27.5991 5.96464 27.5991 11.9094C27.5991 17.8541 21.7766 22.8344 14.4243 22.8344C7.07193 22.8344 1.24942 17.8541 1.24942 11.9094ZM26.8458 11.9094C26.8458 6.21034 21.1713 1.74207 14.4287 1.74207C7.68149 1.74207 2.01151 6.21044 2.01151 11.9094C2.01151 17.6084 7.68601 22.0767 14.4287 22.0767C21.1713 22.0767 26.8458 17.6084 26.8458 11.9094Z" fill="#A23C39" stroke="#A23C39"/>
<path d="M14.2375 11.5823L14.2376 11.5823C16.0968 10.5402 17.9817 9.48963 20.0371 9.15785C22.0546 8.83218 24.2722 9.19653 26.7971 11.0901C26.9424 11.199 26.9771 11.4248 26.8392 11.5889C26.7114 11.7411 26.4591 11.7795 26.2633 11.6347C24.0172 9.9735 22.0147 9.57948 20.0821 9.9061C18.2101 10.2225 16.4413 11.2133 14.6535 12.2147L14.6101 12.2391L14.6097 12.2393C12.7528 13.2812 10.868 14.3318 8.81216 14.6636C6.79411 14.9892 4.57541 14.6248 2.05039 12.7313C1.90512 12.6223 1.87042 12.3966 2.00827 12.2325L1.62539 11.9109L2.00827 12.2325C2.13609 12.0803 2.38843 12.0419 2.58422 12.1867C4.83031 13.8479 6.8328 14.2419 8.76547 13.9153C10.6375 13.5989 12.4062 12.6081 14.1941 11.6066L14.2375 11.5823Z" fill="#A23C39" stroke="#A23C39"/>
<path d="M1.25091 32.7823C1.25091 28.478 2.94939 24.2581 6.07513 20.816C6.20147 20.6769 6.43143 20.6636 6.58472 20.8147C6.73002 20.958 6.74325 21.2085 6.58737 21.3816C3.63842 24.6576 2.0086 28.6722 2.0086 32.7823C2.0086 43.4481 12.5833 51.9578 25.3586 51.9578C38.1339 51.9578 48.7086 43.4482 48.7086 32.7823C48.7086 22.796 39.4242 14.625 27.6132 13.6946C27.387 13.6767 27.2259 13.4871 27.2357 13.2822C27.2457 13.0697 27.4242 12.9178 27.619 12.9327C40.0189 13.8826 49.4663 22.5354 49.4663 32.7779C49.4663 43.6856 38.7429 52.7111 25.3586 52.7111C11.9742 52.7111 1.25091 43.6899 1.25091 32.7823Z" fill="#A23C39" stroke="#A23C39"/>
<path d="M25.3445 48.9965C25.1528 49.003 24.9823 48.8457 24.9823 48.6321C24.9823 48.4275 25.1514 48.2454 25.3792 48.2372C32.7949 47.9723 39.4932 44.4293 42.8338 38.9299C42.9579 38.7257 43.2041 38.6654 43.3829 38.7606C43.5738 38.8623 43.6256 39.0831 43.5322 39.239C40.1018 44.9628 33.1377 48.7359 25.3445 48.9965Z" fill="#A23C39" stroke="#A23C39"/>
<path d="M44.5865 35.9864C44.4148 35.9228 44.3014 35.7144 44.3671 35.4977C44.432 35.2838 44.6387 35.1734 44.8211 35.2165L44.8495 35.2232C45.0599 35.273 45.1634 35.4721 45.1125 35.6429C45.0979 35.6922 45.083 35.7414 45.0678 35.7905C45.0147 35.9629 44.8162 36.0715 44.6134 35.9964L44.5865 35.9864L44.4127 36.4552L44.5865 35.9864Z" fill="#A23C39" stroke="#A23C39"/>
<path d="M25.1723 32.4544L25.1724 32.4543C28.7353 30.4572 32.2596 28.4894 36.073 27.9337C39.844 27.3841 43.9444 28.2131 48.6554 31.944C48.8102 32.0665 48.8368 32.3012 48.7026 32.4609L49.0791 32.777L48.7026 32.4609C48.5728 32.6155 48.3252 32.6464 48.146 32.5052C43.7105 29.0093 39.7796 28.1596 36.0592 28.7188C32.4003 29.2688 28.9909 31.1797 25.5899 33.0859L25.5448 33.1112L25.5447 33.1112C21.9817 35.1084 18.4574 37.0772 14.6435 37.6335C10.872 38.1835 6.77047 37.3546 2.05733 33.6216C1.90259 33.499 1.876 33.2644 2.01012 33.1047L1.62724 32.7831L2.01012 33.1047C2.14 32.95 2.38757 32.9191 2.56681 33.0604C7.0023 36.5563 10.9332 37.406 14.6541 36.8467C18.3123 36.2969 21.7216 34.3872 25.1234 32.4818L25.1723 32.4544Z" fill="#A23C39" stroke="#A23C39"/>
</svg>
