<svg width="50" height="53" viewBox="0 0 50 53" fill="none" xmlns="http://www.w3.org/2000/svg">
<mask id="path-1-inside-1" fill="white">
<path d="M26.3563 12.8006C26.403 12.4997 26.442 12.1968 26.4629 11.8907C26.483 11.596 26.3395 11.3053 26.1077 11.1223C16.707 3.70332 11.62 18.0345 2.62885 12.6802C1.89873 12.2455 0.938394 12.7261 1.14412 13.5506C1.80016 16.1799 3.64909 18.4482 6.19996 19.9676"/>
</mask>
<path d="M26.3563 12.8006C26.403 12.4997 26.442 12.1968 26.4629 11.8907C26.483 11.596 26.3395 11.3053 26.1077 11.1223C16.707 3.70332 11.62 18.0345 2.62885 12.6802C1.89873 12.2455 0.938394 12.7261 1.14412 13.5506C1.80016 16.1799 3.64909 18.4482 6.19996 19.9676" fill="#E5E5E5"/>
<path d="M1.14412 13.5506L0.173861 13.7927L1.14412 13.5506ZM27.3445 12.9541C27.3937 12.6369 27.4371 12.3035 27.4606 11.9587L25.4652 11.8226C25.447 12.0901 25.4124 12.3624 25.3682 12.6471L27.3445 12.9541ZM26.7272 10.3373C24.1974 8.34084 21.8597 7.74559 19.6266 7.99498C17.4633 8.23657 15.5037 9.26572 13.7286 10.2531C11.8898 11.2759 10.254 12.2478 8.52478 12.6825C6.87394 13.0975 5.14454 13.0144 3.1405 11.821L2.1172 13.5394C4.60875 15.0231 6.88691 15.1565 9.01241 14.6221C11.0595 14.1075 12.9689 12.9642 14.7008 12.0009C16.4964 11.0021 18.1331 10.1742 19.8486 9.98262C21.4942 9.79884 23.3176 10.1943 25.4881 11.9073L26.7272 10.3373ZM0.173861 13.7927C0.905382 16.7245 2.95046 19.196 5.68823 20.8267L6.71169 19.1084C4.34772 17.7004 2.69494 15.6353 2.11437 13.3085L0.173861 13.7927ZM3.1405 11.821C2.47107 11.4224 1.66958 11.4266 1.05193 11.7679C0.392788 12.1321 -0.0502057 12.8947 0.173861 13.7927L2.11437 13.3085C2.11377 13.3061 2.11738 13.3198 2.11508 13.346C2.11276 13.3725 2.10521 13.4022 2.0916 13.4311C2.06392 13.49 2.02757 13.5138 2.01916 13.5185C2.01184 13.5225 2.02014 13.5163 2.04303 13.5167C2.06298 13.5171 2.0886 13.5224 2.1172 13.5394L3.1405 11.821ZM27.4606 11.9587C27.5054 11.3012 27.1905 10.703 26.7272 10.3373L25.4881 11.9073C25.4823 11.9027 25.4786 11.8982 25.475 11.8907C25.4712 11.8824 25.4627 11.8595 25.4652 11.8226L27.4606 11.9587Z" fill="#7E8D90" mask="url(#path-1-inside-1)"/>
<path d="M13.6833 1.37918C19.6951 1.37918 24.6092 4.88837 25.7341 9.42006C25.7593 9.52149 25.7446 9.58772 25.7239 9.63162C25.7014 9.67951 25.6576 9.72963 25.5852 9.76959C25.4353 9.8524 25.2021 9.86741 24.9892 9.74069C22.6196 8.32956 20.4786 8.20877 18.4719 8.71329C16.703 9.15801 15.0365 10.0924 13.4403 10.9873C13.2611 11.0878 13.0827 11.1878 12.9051 11.2866C11.1149 12.2825 9.39788 13.1607 7.57109 13.3648C5.77923 13.565 3.82805 13.1196 1.56869 11.3358C1.45368 11.245 1.39259 11.1055 1.39891 10.9858C1.67675 5.72322 6.9866 1.37918 13.6833 1.37918Z" fill="#E5E5E5" stroke="#7E8D90"/>
<path d="M2.28667 34.0249C6.83147 37.2675 10.8901 37.8595 14.6971 37.1198C18.2662 36.4263 21.5913 34.5626 24.8306 32.7471C25.0068 32.6483 25.1827 32.5497 25.3584 32.4514C28.7988 30.5273 32.1579 28.728 35.7653 28.292C39.3329 27.8608 43.1985 28.7602 47.6492 32.3783C47.7672 32.4742 47.8345 32.6234 47.8308 32.7513C47.5397 42.984 37.3422 51.3527 24.6084 51.3527C12.5593 51.3527 2.76838 43.8517 1.51587 34.3743C1.49068 34.1837 1.5774 34.0484 1.72502 33.973C1.8825 33.8925 2.0991 33.891 2.28667 34.0249Z" fill="#E5E5E5" stroke="#7E8D90"/>
<path d="M27.2126 13.3666C38.0518 14.3608 46.5397 21.4418 47.7008 30.2213C47.726 30.4119 47.6393 30.5471 47.4917 30.6226C47.3342 30.7031 47.1177 30.7046 46.9301 30.5708C42.3853 27.3282 38.3267 26.7361 34.5197 27.4758C30.9506 28.1693 27.6254 30.033 24.3862 31.8486C24.21 31.9473 24.034 32.0459 23.8583 32.1442C20.418 34.0683 17.0589 35.8676 13.4515 36.3036C9.88393 36.7349 6.01829 35.8354 1.56757 32.2173C1.449 32.1209 1.38233 31.9728 1.38594 31.8456C1.50571 27.6203 3.30341 23.7204 6.27715 20.5932C8.39864 21.7772 10.9401 22.4708 13.6755 22.4708C19.9731 22.4708 25.3187 18.8191 26.6482 13.8154C26.7283 13.514 26.9818 13.3455 27.2126 13.3666Z" fill="#E5E5E5" stroke="#7E8D90"/>
<mask id="path-6-inside-2" fill="white">
<path d="M6.19663 19.967C8.30147 21.2194 10.8809 21.9708 13.68 21.9708C20.1791 21.9708 25.5357 17.972 26.3574 12.8"/>
</mask>
<path d="M6.19663 19.967C8.30147 21.2194 10.8809 21.9708 13.68 21.9708C20.1791 21.9708 25.5357 17.972 26.3574 12.8" fill="#E5E5E5"/>
<path d="M5.68531 20.8264C7.94615 22.1716 10.7024 22.9708 13.68 22.9708L13.68 20.9708C11.0593 20.9708 8.65679 20.2672 6.70796 19.1076L5.68531 20.8264ZM13.68 22.9708C20.532 22.9708 26.4262 18.74 27.345 12.9569L25.3698 12.6431C24.6451 17.2041 19.8262 20.9708 13.68 20.9708L13.68 22.9708Z" fill="#7E8D90" mask="url(#path-6-inside-2)"/>
<path d="M0.500001 11.425C0.500002 5.48026 6.32251 0.499999 13.6749 0.499999C21.0272 0.5 26.8497 5.48026 26.8497 11.425C26.8497 17.3697 21.0272 22.35 13.6749 22.35C6.32251 22.35 0.500001 17.3697 0.500001 11.425ZM26.0964 11.425C26.0964 5.72596 20.4219 1.25769 13.6792 1.25769C6.93207 1.25769 1.26209 5.72607 1.26209 11.425C1.26209 17.124 6.93659 21.5923 13.6792 21.5923C20.4219 21.5923 26.0964 17.124 26.0964 11.425Z" fill="#A23C39" stroke="#7E8D90"/>
<path d="M13.4881 11.098L13.4882 11.0979C15.3474 10.0558 17.2323 9.00525 19.2877 8.67347C21.3052 8.3478 23.5228 8.71216 26.0477 10.6057C26.193 10.7147 26.2277 10.9404 26.0898 11.1046C25.962 11.2568 25.7097 11.2951 25.5139 11.1503C23.2678 9.48912 21.2653 9.0951 19.3326 9.42172C17.4607 9.73809 15.6919 10.7289 13.904 11.7304L13.8606 11.7547L13.8603 11.7549C12.0034 12.7969 10.1185 13.8474 8.06274 14.1792C6.04469 14.5049 3.82599 14.1405 1.30097 12.2469C1.1557 12.138 1.121 11.9122 1.25885 11.7481C1.38667 11.5959 1.63901 11.5576 1.8348 11.7024C4.08089 13.3635 6.08338 13.7575 8.01605 13.4309C9.88804 13.1146 11.6568 12.1238 13.4447 11.1223L13.4881 11.098Z" fill="#A23C39" stroke="#7E8D90"/>
<path d="M0.501487 32.2979C0.501487 27.9935 2.19997 23.7737 5.32571 20.3316C5.45205 20.1925 5.68201 20.1791 5.8353 20.3303C5.9806 20.4735 5.99383 20.724 5.83795 20.8972C2.889 24.1732 1.25918 28.1878 1.25918 32.2979C1.25918 42.9637 11.8339 51.4733 24.6092 51.4733C37.3845 51.4734 47.9592 42.9637 47.9592 32.2979C47.9592 22.3116 38.6748 14.1406 26.8638 13.2101C26.6376 13.1923 26.4765 13.0027 26.4862 12.7977C26.4963 12.5852 26.6748 12.4334 26.8696 12.4483C39.2695 13.3981 48.7169 22.051 48.7169 32.2935C48.7169 43.2012 37.9935 52.2266 24.6092 52.2266C11.2248 52.2266 0.501486 43.2054 0.501487 32.2979Z" fill="#A23C39" stroke="#7E8D90"/>
<path d="M24.63 47.7531C32.0457 47.4881 38.744 43.9451 42.0846 38.4457C42.2087 38.2415 42.4549 38.1812 42.6337 38.2765C42.8246 38.3781 42.8764 38.5989 42.783 38.7548C39.3526 44.4786 32.3885 48.2517 24.5953 48.5124C24.4036 48.5188 24.2331 48.3616 24.2331 48.1479C24.2331 47.9434 24.4022 47.7612 24.63 47.7531Z" fill="#A23C39" stroke="#7E8D90"/>
<path d="M44.0717 34.7321L44.1001 34.7388C44.3105 34.7886 44.4139 34.9877 44.3631 35.1586C44.3485 35.2078 44.3336 35.257 44.3184 35.3061C44.2653 35.4785 44.0668 35.5872 43.864 35.512L43.8371 35.502C43.6654 35.4384 43.552 35.23 43.6177 35.0133C43.6825 34.7994 43.8893 34.689 44.0717 34.7321Z" fill="#A23C39" stroke="#7E8D90"/>
<path d="M24.4229 31.97L24.423 31.9699C27.9859 29.9728 31.5102 28.005 35.3236 27.4493C39.0945 26.8997 43.195 27.7287 47.906 31.4596C48.0607 31.5822 48.0874 31.8168 47.9532 31.9765C47.8234 32.1311 47.5758 32.162 47.3966 32.0208C42.9611 28.5249 39.0302 27.6752 35.3098 28.2344C31.6509 28.7844 28.2415 30.6953 24.8405 32.6015L24.7953 32.6268L24.7953 32.6268C21.2323 34.624 17.708 36.5928 13.8941 37.1491C10.1226 37.6992 6.02105 36.8702 1.30791 33.1372C1.15317 33.0146 1.12658 32.78 1.2607 32.6203C1.39058 32.4657 1.63815 32.4347 1.81739 32.576C6.25288 36.0719 10.1838 36.9216 13.9047 36.3623C17.5628 35.8126 20.9722 33.9029 24.3739 31.9974L24.4229 31.97Z" fill="#A23C39" stroke="#7E8D90"/>
</svg>
