<svg width="61" height="55" viewBox="0 0 61 55" fill="none" xmlns="http://www.w3.org/2000/svg">
<path d="M29.7515 20.9844H27.7515H25.7515H21.7927C21.7717 20.9844 21.7564 21.004 21.7615 21.0244C22.3415 23.3494 24.4365 24.9844 26.8315 24.9844H34.6665C37.0665 24.9844 39.1565 23.3494 39.7365 21.0244C39.7437 21.005 39.7294 20.9844 39.7088 20.9844H31.7515H29.7515Z" fill="#F3F3F3"/>
<path d="M34.7515 5.98438H36.7515H38.7515H39.5305C40.5542 5.98438 41.4126 5.21135 41.5195 4.19323C41.6435 3.01253 40.7177 1.98438 39.5305 1.98438H21.9725C20.7853 1.98438 19.8594 3.01252 19.9834 4.19323L20.1109 5.40754C20.1453 5.73542 20.4218 5.98438 20.7515 5.98438H34.7515Z" fill="#F3F3F3"/>
<path d="M43.7515 2.98438H17.7515C17.2015 2.98438 16.7515 2.53938 16.7515 1.98438C16.7515 1.42937 17.2015 0.984375 17.7515 0.984375H43.7515C44.3015 0.984375 44.7515 1.42937 44.7515 1.98438C44.7515 2.53938 44.3015 2.98438 43.7515 2.98438Z" fill="#7E8D90"/>
<path d="M34.6726 25.9845H26.8376C23.9726 25.9845 21.4876 24.0445 20.7976 21.2645C20.7226 20.9645 20.7876 20.6295 20.9726 20.3845C21.1626 20.1445 21.4476 19.9795 21.7576 19.9795H24.7576C25.3099 19.9795 25.7576 20.4272 25.7576 20.9795V21.084C25.7576 21.5785 25.3567 21.9795 24.8621 21.9795C24.16 21.9795 23.7722 22.7389 24.3369 23.156C25.0446 23.6788 25.9145 23.9795 26.8426 23.9795H34.6776C34.9166 23.9795 35.1518 23.9596 35.3813 23.9211C36.9267 23.662 36.2498 21.9795 34.6829 21.9795H32.7526C32.2003 21.9795 31.7526 21.5318 31.7526 20.9795C31.7526 20.4272 32.2003 19.9795 32.7526 19.9795H39.7526C40.0576 19.9795 40.3476 20.1195 40.5376 20.3645C40.7276 20.6045 40.7976 20.9195 40.7226 21.2195C40.0176 24.0445 37.5326 25.9845 34.6726 25.9845Z" fill="#7E8D90"/>
<path d="M27.7515 20.9844C27.7515 21.5367 28.1992 21.9844 28.7515 21.9844C29.3037 21.9844 29.7515 21.5367 29.7515 20.9844C29.7515 20.4321 29.3037 19.9844 28.7515 19.9844C28.1992 19.9844 27.7515 20.4321 27.7515 20.9844Z" fill="#7E8D90"/>
<path d="M40.8519 20.0941C40.794 20.6437 40.3015 21.0423 39.7519 20.9844C39.2025 20.9264 38.804 20.434 38.8619 19.8846L40.4094 5.19389C40.5338 4.01296 39.6079 2.98438 38.4204 2.98438H23.0839C21.8964 2.98438 20.9705 4.01296 21.0949 5.19389L22.6423 19.8846C22.7002 20.434 22.3018 20.9264 21.7523 20.9844C21.2027 21.0423 20.7102 20.6437 20.6524 20.0941L18.7571 2.08939C18.7271 1.80939 18.8171 1.52436 19.0071 1.31436C19.1971 1.10436 19.4671 0.984375 19.7521 0.984375H41.7521C42.0371 0.984375 42.3071 1.10436 42.4971 1.31436C42.6871 1.52436 42.7771 1.80439 42.7471 2.08939L40.8519 20.0941Z" fill="#7E8D90"/>
<path d="M33.7515 4.98438H21.7515C21.1992 4.98438 20.7515 5.43209 20.7515 5.98438C20.7515 6.53666 21.1992 6.98438 21.7515 6.98438H33.7515C34.3037 6.98438 34.7515 6.53666 34.7515 5.98438C34.7515 5.43209 34.3037 4.98438 33.7515 4.98438Z" fill="#7E8D90"/>
<path d="M45.7515 49.9844H43.7515H41.7515H37.7927C37.7717 49.9844 37.7564 50.004 37.7615 50.0244C38.3415 52.3494 40.4365 53.9844 42.8315 53.9844H50.6665C53.0665 53.9844 55.1565 52.3494 55.7365 50.0244C55.7437 50.005 55.7294 49.9844 55.7088 49.9844H47.7515H45.7515Z" fill="#F3F3F3"/>
<path d="M50.7515 34.9844H52.7515H54.7515H55.5305C56.5542 34.9844 57.4126 34.2113 57.5195 33.1932C57.6435 32.0125 56.7177 30.9844 55.5305 30.9844H37.9725C36.7853 30.9844 35.8594 32.0125 35.9834 33.1932L36.1109 34.4076C36.1453 34.7354 36.4218 34.9844 36.7515 34.9844H50.7515Z" fill="#F3F3F3"/>
<path d="M59.7515 31.9844H33.7515C33.2015 31.9844 32.7515 31.5394 32.7515 30.9844C32.7515 30.4294 33.2015 29.9844 33.7515 29.9844H59.7515C60.3015 29.9844 60.7515 30.4294 60.7515 30.9844C60.7515 31.5394 60.3015 31.9844 59.7515 31.9844Z" fill="#7E8D90"/>
<path d="M50.6726 54.9845H42.8376C39.9726 54.9845 37.4876 53.0445 36.7976 50.2645C36.7226 49.9645 36.7876 49.6295 36.9726 49.3845C37.1626 49.1445 37.4476 48.9795 37.7576 48.9795H40.7576C41.3099 48.9795 41.7576 49.4272 41.7576 49.9795V50.084C41.7576 50.5785 41.3567 50.9795 40.8621 50.9795C40.16 50.9795 39.7722 51.7389 40.3368 52.156C41.0446 52.6788 41.9145 52.9795 42.8426 52.9795H50.6776C50.9166 52.9795 51.1518 52.9596 51.3813 52.9211C52.9267 52.662 52.2498 50.9795 50.6829 50.9795H48.7526C48.2003 50.9795 47.7526 50.5318 47.7526 49.9795C47.7526 49.4272 48.2003 48.9795 48.7526 48.9795H55.7526C56.0576 48.9795 56.3476 49.1195 56.5376 49.3645C56.7276 49.6045 56.7976 49.9195 56.7226 50.2195C56.0176 53.0445 53.5326 54.9845 50.6726 54.9845Z" fill="#7E8D90"/>
<path d="M43.7515 49.9844C43.7515 50.5367 44.1992 50.9844 44.7515 50.9844C45.3037 50.9844 45.7515 50.5367 45.7515 49.9844C45.7515 49.4321 45.3037 48.9844 44.7515 48.9844C44.1992 48.9844 43.7515 49.4321 43.7515 49.9844Z" fill="#7E8D90"/>
<path d="M56.8519 49.0941C56.794 49.6437 56.3015 50.0423 55.7519 49.9844C55.2025 49.9264 54.804 49.434 54.8619 48.8846L56.4094 34.1939C56.5338 33.013 55.6079 31.9844 54.4204 31.9844H39.0838C37.8964 31.9844 36.9705 33.013 37.0949 34.1939L38.6423 48.8846C38.7002 49.434 38.3018 49.9264 37.7523 49.9844C37.2027 50.0423 36.7102 49.6437 36.6524 49.0941L34.7571 31.0894C34.7271 30.8094 34.8171 30.5244 35.0071 30.3144C35.1971 30.1044 35.4671 29.9844 35.7521 29.9844H57.7521C58.0371 29.9844 58.3071 30.1044 58.4971 30.3144C58.6871 30.5244 58.7771 30.8044 58.7471 31.0894L56.8519 49.0941Z" fill="#7E8D90"/>
<path d="M49.7515 33.9844H37.7515C37.1992 33.9844 36.7515 34.4321 36.7515 34.9844C36.7515 35.5367 37.1992 35.9844 37.7515 35.9844H49.7515C50.3037 35.9844 50.7515 35.5367 50.7515 34.9844C50.7515 34.4321 50.3037 33.9844 49.7515 33.9844Z" fill="#7E8D90"/>
<path d="M13.7515 49.9844H11.7515H9.75146H5.79267C5.77174 49.9844 5.75638 50.004 5.76146 50.0244C6.34146 52.3494 8.43647 53.9844 10.8315 53.9844H18.6665C21.0665 53.9844 23.1565 52.3494 23.7365 50.0244C23.7437 50.005 23.7294 49.9844 23.7088 49.9844H15.7515H13.7515Z" fill="#F3F3F3"/>
<path d="M18.7515 34.9844H20.7515H22.7515H23.5305C24.5542 34.9844 25.4126 34.2113 25.5195 33.1932C25.6435 32.0125 24.7177 30.9844 23.5305 30.9844H5.97246C4.78526 30.9844 3.85942 32.0125 3.98339 33.1932L4.1109 34.4075C4.14532 34.7354 4.42178 34.9844 4.75146 34.9844H18.7515Z" fill="#F3F3F3"/>
<path d="M27.7515 31.9844H1.75146C1.20146 31.9844 0.751465 31.5394 0.751465 30.9844C0.751465 30.4294 1.20146 29.9844 1.75146 29.9844H27.7515C28.3015 29.9844 28.7515 30.4294 28.7515 30.9844C28.7515 31.5394 28.3015 31.9844 27.7515 31.9844Z" fill="#7E8D90"/>
<path d="M18.6726 54.9845H10.8376C7.97263 54.9845 5.48762 53.0445 4.79762 50.2645C4.72262 49.9645 4.78762 49.6295 4.97262 49.3845C5.16262 49.1445 5.44763 48.9795 5.75763 48.9795H8.75763C9.30991 48.9795 9.75763 49.4272 9.75763 49.9795V50.084C9.75763 50.5785 9.35668 50.9795 8.86209 50.9795C8.16004 50.9795 7.77216 51.7389 8.33686 52.156C9.04464 52.6788 9.91453 52.9795 10.8426 52.9795H18.6776C18.9166 52.9795 19.1518 52.9596 19.3814 52.9211C20.9267 52.662 20.2498 50.9795 18.6829 50.9795H16.7526C16.2003 50.9795 15.7526 50.5318 15.7526 49.9795C15.7526 49.4272 16.2003 48.9795 16.7526 48.9795H23.7526C24.0576 48.9795 24.3476 49.1195 24.5376 49.3645C24.7276 49.6045 24.7976 49.9195 24.7226 50.2195C24.0176 53.0445 21.5326 54.9845 18.6726 54.9845Z" fill="#7E8D90"/>
<path d="M11.7515 49.9844C11.7515 50.5367 12.1992 50.9844 12.7515 50.9844C13.3037 50.9844 13.7515 50.5367 13.7515 49.9844C13.7515 49.4321 13.3037 48.9844 12.7515 48.9844C12.1992 48.9844 11.7515 49.4321 11.7515 49.9844Z" fill="#7E8D90"/>
<path d="M24.8519 49.0941C24.794 49.6437 24.3015 50.0423 23.7519 49.9844C23.2025 49.9264 22.804 49.434 22.8619 48.8846L24.4094 34.1939C24.5338 33.013 23.6078 31.9844 22.4204 31.9844H7.08386C5.8964 31.9844 4.97047 33.013 5.09487 34.1939L6.64233 48.8846C6.70021 49.434 6.30176 49.9264 5.75233 49.9844C5.20273 50.0423 4.71022 49.6437 4.65237 49.0941L2.75713 31.0894C2.72713 30.8094 2.81713 30.5244 3.00713 30.3144C3.19713 30.1044 3.46712 29.9844 3.75212 29.9844H25.7521C26.0371 29.9844 26.3071 30.1044 26.4971 30.3144C26.6871 30.5244 26.7771 30.8044 26.7471 31.0894L24.8519 49.0941Z" fill="#7E8D90"/>
<path d="M17.7515 33.9844H5.75146C5.19918 33.9844 4.75146 34.4321 4.75146 34.9844C4.75146 35.5367 5.19918 35.9844 5.75147 35.9844H17.7515C18.3037 35.9844 18.7515 35.5367 18.7515 34.9844C18.7515 34.4321 18.3037 33.9844 17.7515 33.9844Z" fill="#7E8D90"/>
</svg>
