<svg width="26" height="26" viewBox="0 0 26 26" fill="none" xmlns="http://www.w3.org/2000/svg">
<path d="M25.7441 12.8047C25.7441 5.90218 20.1466 0.304688 13.2441 0.304688C6.34164 0.304688 0.744141 5.90218 0.744141 12.8047C0.744141 19.7072 6.34164 25.3047 13.2441 25.3047C13.3176 25.3047 13.3906 25.3032 13.4639 25.3018V15.5711H10.7783V12.4413H13.4639V10.1382C13.4639 7.46716 15.0945 6.01338 17.4771 6.01338C18.6181 6.01338 19.5989 6.09845 19.8848 6.13641V8.928H18.2418C16.9455 8.928 16.6945 9.54408 16.6945 10.448V12.4413H19.794L19.39 15.5711H16.6945V24.8217C21.9193 23.3239 25.7441 18.5103 25.7441 12.8047Z" fill="white"/>
</svg>
