<svg width="543" height="537" viewBox="0 0 543 537" fill="none" xmlns="http://www.w3.org/2000/svg">
<path d="M398.889 198.142C370.618 176.112 342.059 155.301 307.885 144.25C287.551 137.675 265.701 137.912 244.487 139.513C210.999 142.041 179.066 150.871 150.785 170.842C132.157 183.997 119.137 199.076 113.852 221.613C109.661 239.485 108.95 269.072 117.483 285.738C126.205 302.775 138.993 319.293 152.537 332.301C168.827 347.946 190.334 354.253 210.071 364.022C245.961 381.787 285.825 389.069 324.755 396.219C365.974 403.79 420.055 392.676 433.631 345.022C441.456 317.555 446.707 279.335 430.686 254.03C423.163 242.148 417.778 232.018 407.901 221.721C397.865 211.259 386.474 204.237 375.011 195.54C362.665 186.173 346.037 179.315 332.267 172.37C312.063 162.18 291.028 158.058 268.741 155.679C218.861 150.355 154.152 148.271 110.124 179.676C90.9936 193.321 75.7701 232.77 82.8184 256.131C88.7113 275.662 95.9152 293.65 109.752 308.075C120.97 319.769 135.28 330.913 148.061 340.918C161.451 351.401 175.172 358.156 189.439 366.83C201.094 373.916 215.225 382.425 228.163 386.935C263.494 399.253 300.872 404.204 338.36 401.059C360.858 399.171 384.534 396.117 404.32 382.799C427.044 367.505 431.025 348.419 433.738 322.055C435.254 307.323 434.274 287.384 429.071 273.623C424.749 262.194 420.396 250.871 416.073 239.472C413.038 231.468 407.21 224.721 404.063 216.708C401.322 209.727 398.755 202.571 395.285 195.962C392.425 190.513 381.443 175.902 385.648 180.286" stroke="white" stroke-linecap="round" stroke-linejoin="round"/>
<path d="M143.166 338.853C171.436 360.883 199.995 381.694 234.17 392.745C254.504 399.32 276.354 399.083 297.567 397.482C331.056 394.954 362.989 386.124 391.27 366.153C409.898 352.998 422.918 337.919 428.203 315.382C432.393 297.51 433.104 267.923 424.572 251.257C415.85 234.22 403.061 217.702 389.518 204.694C373.228 189.049 351.721 182.742 331.984 172.973C296.093 155.208 256.23 147.926 217.3 140.776C176.08 133.205 122 144.319 108.424 191.973C100.599 219.44 95.348 257.66 111.368 282.965C118.891 294.847 124.277 304.977 134.154 315.274C144.19 325.736 155.581 332.758 167.044 341.455C179.39 350.822 196.017 357.681 209.788 364.625C229.992 374.815 251.027 378.937 273.313 381.316C323.194 386.64 387.903 388.724 431.931 357.319C451.061 343.674 466.285 304.225 459.236 280.864C453.343 261.333 446.14 243.345 432.303 228.921C421.085 217.226 406.775 206.082 393.994 196.077C380.604 185.594 366.883 178.839 352.616 170.165C340.961 163.079 326.829 154.57 313.892 150.06C278.561 137.742 241.182 132.791 203.694 135.936C181.197 137.824 157.521 140.878 137.734 154.196C115.01 169.49 111.03 188.576 108.317 214.94C106.801 229.672 107.78 249.611 112.984 263.372C117.306 274.801 121.659 286.125 125.982 297.523C129.017 305.527 134.844 312.274 137.991 320.287C140.733 327.268 143.3 334.424 146.769 341.033C149.629 346.482 160.612 361.093 156.406 356.709" stroke="white" stroke-linecap="round" stroke-linejoin="round"/>
</svg>
