<svg width="26" height="26" viewBox="0 0 26 26" fill="none" xmlns="http://www.w3.org/2000/svg">
<path d="M15.8043 12.8047C15.8043 14.2187 14.6581 15.365 13.2441 15.365C11.8301 15.365 10.6839 14.2187 10.6839 12.8047C10.6839 11.3907 11.8301 10.2445 13.2441 10.2445C14.6581 10.2445 15.8043 11.3907 15.8043 12.8047Z" fill="white"/>
<path fill-rule="evenodd" clip-rule="evenodd" d="M18.8293 8.57936C18.7145 8.26828 18.5313 7.98671 18.2933 7.75559C18.0622 7.51761 17.7808 7.33447 17.4696 7.21967C17.2171 7.12162 16.8379 7.00492 16.1394 6.97313C15.3838 6.93867 15.1572 6.93124 13.2443 6.93124C11.3312 6.93124 11.1046 6.93848 10.3492 6.97294C9.65068 7.00492 9.27126 7.12162 9.019 7.21967C8.70773 7.33447 8.42616 7.51761 8.19523 7.75559C7.95726 7.98671 7.77411 8.26809 7.65912 8.57936C7.56108 8.8318 7.44437 9.21123 7.41258 9.90973C7.37812 10.6652 7.3707 10.8917 7.3707 12.8048C7.3707 14.7178 7.37812 14.9443 7.41258 15.6999C7.44437 16.3984 7.56108 16.7777 7.65912 17.0301C7.77411 17.3414 7.95707 17.6228 8.19504 17.8539C8.42616 18.0919 8.70754 18.275 9.01881 18.3898C9.27126 18.488 9.65068 18.6047 10.3492 18.6365C11.1046 18.671 11.331 18.6782 13.2441 18.6782C15.1574 18.6782 15.384 18.671 16.1392 18.6365C16.8377 18.6047 17.2171 18.488 17.4696 18.3898C18.0944 18.1488 18.5882 17.6549 18.8293 17.0301C18.9273 16.7777 19.044 16.3984 19.076 15.6999C19.1104 14.9443 19.1177 14.7178 19.1177 12.8048C19.1177 10.8917 19.1104 10.6652 19.076 9.90973C19.0442 9.21123 18.9275 8.8318 18.8293 8.57936ZM13.2443 16.4835C11.2124 16.4835 9.5652 14.8366 9.5652 12.8046C9.5652 10.7727 11.2124 9.12575 13.2443 9.12575C15.276 9.12575 16.9232 10.7727 16.9232 12.8046C16.9232 14.8366 15.276 16.4835 13.2443 16.4835ZM17.0686 9.84005C16.5938 9.84005 16.2089 9.4551 16.2089 8.9803C16.2089 8.50549 16.5938 8.12054 17.0686 8.12054C17.5434 8.12054 17.9284 8.50549 17.9284 8.9803C17.9282 9.4551 17.5434 9.84005 17.0686 9.84005Z" fill="white"/>
<path fill-rule="evenodd" clip-rule="evenodd" d="M0.744141 12.8047C0.744141 5.90218 6.34164 0.304688 13.2441 0.304688C20.1466 0.304688 25.7441 5.90218 25.7441 12.8047C25.7441 19.7072 20.1466 25.3047 13.2441 25.3047C6.34164 25.3047 0.744141 19.7072 0.744141 12.8047ZM20.045 17.5063C20.2224 17.0497 20.3439 16.528 20.3786 15.7639C20.4137 14.9985 20.4219 14.754 20.4219 12.8047C20.4219 10.8554 20.4137 10.6109 20.3788 9.84544C20.3439 9.08135 20.2226 8.55969 20.045 8.10307C19.8649 7.62414 19.5823 7.19041 19.2172 6.83183C18.8586 6.46657 18.4247 6.1839 17.9458 6.00365C17.4891 5.82646 16.9675 5.70515 16.2034 5.67044C15.438 5.63535 15.1935 5.62695 13.2441 5.62695C11.2948 5.62695 11.0503 5.63535 10.2849 5.67025C9.52081 5.70515 8.99915 5.82646 8.54253 6.00385C8.06359 6.18409 7.62967 6.46657 7.27128 6.83183C6.90602 7.19022 6.62335 7.62414 6.44311 8.10307C6.26572 8.55969 6.14442 9.08135 6.1097 9.84544C6.07461 10.6109 6.06641 10.8554 6.06641 12.8047C6.06641 14.754 6.07461 14.9985 6.10989 15.7641C6.14461 16.528 6.26611 17.0499 6.44349 17.5063C6.62373 17.9852 6.90621 18.4192 7.27128 18.7775C7.62986 19.1428 8.06359 19.4253 8.54272 19.6055C8.99915 19.7829 9.521 19.9042 10.2849 19.9391C11.0505 19.974 11.2948 19.9824 13.2443 19.9824C15.1936 19.9824 15.4382 19.974 16.2036 19.9391C16.9675 19.9042 17.4893 19.7829 17.9458 19.6055C18.9099 19.2326 19.6721 18.4705 20.045 17.5063Z" fill="white"/>
</svg>
