<svg width="43" height="55" viewBox="0 0 43 55" fill="none" xmlns="http://www.w3.org/2000/svg">
<path d="M22.9713 4.05728V4.48428H21.6713H19.8713H18.5713V4.05728C18.5713 2.85742 19.5444 1.88428 20.7443 1.88428H20.7983C21.9981 1.88428 22.9713 2.85742 22.9713 4.05728Z" fill="#F3F3F3" stroke="#7E8D90"/>
<path d="M13.1694 32.3843V28.8843H18.5194H23.0194H28.3694V32.3843H23.0194H18.5194H13.1694Z" fill="#F3F3F3" stroke="#7E8D90"/>
<path d="M9.03907 19.546L1.75503 12.262L3.8216 10.8843H7.73963L9.03907 19.546Z" fill="#F3F3F3" stroke="#7E8D90"/>
<mask id="path-4-inside-1" fill="white">
<path d="M8.16943 10.3843L9.75793 20.9728L8.16943 10.3843Z"/>
</mask>
<path d="M8.16943 10.3843L9.75793 20.9728L8.16943 10.3843Z" fill="#F3F3F3"/>
<path d="M7.1805 10.5326L8.769 21.1211L10.7469 20.8244L9.15837 10.2359L7.1805 10.5326ZM10.7469 20.8244L9.15837 10.2359L7.1805 10.5326L8.769 21.1211L10.7469 20.8244Z" fill="#7E8D90" mask="url(#path-4-inside-1)"/>
<path d="M18.4694 4.08437V4.58814L18.9732 4.58436L22.5732 4.55736L23.0694 4.55364V4.05737C23.0694 2.80473 22.0491 1.78437 20.7964 1.78437C19.4996 1.78437 18.4694 2.79498 18.4694 4.05737V4.08437ZM23.8694 5.38437H17.6694V4.05737C17.6694 2.36252 19.0476 0.984375 20.7424 0.984375C22.4962 0.984375 23.8694 2.3674 23.8694 4.05737V5.38437Z" fill="#7E8D90" stroke="#7E8D90"/>
<path d="M10.4776 32.832L10.4777 32.8318C10.5036 32.632 10.673 32.4844 10.8728 32.4844H30.6728C30.8706 32.4844 31.0421 32.6345 31.0681 32.8325L33.7676 53.5283C33.7676 53.5288 33.7677 53.5293 33.7677 53.5298C33.7821 53.65 33.745 53.766 33.6732 53.8473C33.595 53.9357 33.4874 53.9844 33.3728 53.9844H8.17284C8.05822 53.9844 7.95064 53.9357 7.8725 53.8473C7.80064 53.766 7.7636 53.6499 7.77793 53.5298C7.77798 53.5293 7.77805 53.5288 7.77811 53.5283L10.4776 32.832ZM8.70304 52.6197L8.62936 53.1844H9.19884H32.3513H32.9208L32.8471 52.6197L30.3811 33.7197L30.3243 33.2844H29.8853H11.6648H11.2258L11.169 33.7197L8.70304 52.6197Z" fill="#7E8D90" stroke="#7E8D90"/>
<path d="M7.7761 10.4452L7.7761 10.4452L7.77572 10.4427C7.75795 10.3282 7.79089 10.2144 7.86705 10.1262C7.9455 10.0354 8.05612 9.98438 8.17263 9.98438H33.3726C33.4911 9.98438 33.6016 10.0355 33.6746 10.122L33.6746 10.122L33.6782 10.1262C33.7541 10.2141 33.787 10.3318 33.7697 10.4414L33.7691 10.4452L31.0694 28.4437C31.0693 28.444 31.0693 28.4443 31.0692 28.4445C31.0388 28.6408 30.8711 28.7844 30.6726 28.7844H10.8726C10.6741 28.7844 10.5063 28.6407 10.476 28.4443C10.4759 28.4441 10.4759 28.4439 10.4759 28.4437L7.7761 10.4452ZM11.1522 27.5587L11.2162 27.9844H11.6466H29.8941H30.3247L30.3886 27.5585L32.8186 11.3585L32.9047 10.7844H32.3241H9.21213H8.63138L8.71768 11.3587L11.1522 27.5587Z" fill="#7E8D90" stroke="#7E8D90"/>
<path d="M26.2097 9.80467L26.3596 9.98447H26.5937H29.8427L30.082 9.0455L24.1241 5.7965L23.5007 6.55567L26.2097 9.80467ZM16.9079 9.16457L16.2253 9.98447H17.2922H24.2492H25.317L24.6332 9.16428L21.6317 5.56429L21.4818 5.38447H21.2477H20.2892H20.0548L19.9049 5.56457L16.9079 9.16457ZM11.4593 9.0455L11.6987 9.98447H14.9477H15.1818L15.3317 9.80467L18.0407 6.55567L17.4173 5.7965L11.4593 9.0455ZM23.5682 4.58447L34.9375 10.7845H6.59882L17.9642 4.58447H23.5682Z" fill="#7E8D90" stroke="#7E8D90"/>
<path d="M13.0749 31.9844V32.4844H13.5749H27.9749H28.4749V31.9844V29.2844V28.7844H27.9749H13.5749H13.0749V29.2844V31.9844ZM29.2749 33.2844H12.2749V27.9844H29.2749V33.2844Z" fill="#7E8D90" stroke="#7E8D90"/>
<path d="M18.9475 27.5587L19.0115 27.9844H19.4419H22.3894H22.82L22.8839 27.5585L25.3139 11.3585L25.4 10.7844H24.8194H17.0074H16.4267L16.513 11.3587L18.9475 27.5587ZM26.327 9.98438L23.5112 28.7844H18.32L15.5 9.98438H26.327Z" fill="#7E8D90" stroke="#7E8D90"/>
<path d="M16.35 52.6197L16.2764 53.1844H16.8458H24.6983H25.2678L25.1941 52.6197L22.7281 33.7197L22.6713 33.2844H22.2323H19.3118H18.8728L18.816 33.7197L16.35 52.6197ZM23.3728 32.4844L26.1764 53.9844H15.3678L18.1714 32.4844H23.3728Z" fill="#7E8D90" stroke="#7E8D90"/>
<path d="M10.1517 20.9077L10.1519 20.9091C10.1771 21.074 10.0915 21.2437 9.93422 21.3234L9.92299 21.3291L9.91207 21.3353C9.86899 21.36 9.82102 21.373 9.75963 21.373C9.6552 21.373 9.55379 21.3335 9.47418 21.2539L0.685684 12.4654C0.604865 12.3846 0.559714 12.2667 0.569083 12.1402C0.582014 12.0224 0.643958 11.918 0.746753 11.8475L3.44449 10.049C3.51402 10.0026 3.58909 9.97998 3.66663 9.97998H8.16663C8.36518 9.97998 8.53289 10.1236 8.56328 10.3199C8.56332 10.3202 8.56335 10.3204 8.56339 10.3206L10.1517 20.9077ZM2.10707 11.9078L1.59903 12.246L2.03059 12.6775L8.11008 18.757L9.1829 19.8299L8.95811 18.3294L7.89162 11.2104L7.82781 10.7845H7.39713H3.94563H3.79442L3.66855 10.8683L2.10707 11.9078Z" fill="#7E8D90" stroke="#7E8D90"/>
<path d="M36.6374 15.0913V14.5913H36.1374H33.2983V13.7913H36.1374C36.8557 13.7913 37.4374 14.3729 37.4374 15.0913V16.5133V16.8508L37.7504 16.977C38.4469 17.2577 38.9358 17.9451 38.9358 18.7453C38.9358 19.8367 38.0802 20.6843 37.0508 20.6843C36.4237 20.6843 35.9343 21.1826 35.9343 21.7918C35.9343 22.3956 36.3838 22.9308 37.0193 22.9308C38.0887 22.9308 38.9358 23.7869 38.9358 24.8383C38.9358 25.9297 38.0802 26.7773 37.0508 26.7773H36.2724C35.6528 26.7773 35.1874 27.2955 35.1874 27.8848V28.6768C35.1874 29.273 35.6551 29.7843 36.2724 29.7843H37.7889C39.6451 29.7843 41.1374 28.2457 41.1374 26.3773V14.9563C41.1374 12.6636 39.3064 10.7888 37.0374 10.7888H33.8698V9.98877H37.0374C39.7343 9.98877 41.9374 12.2115 41.9374 14.9563V26.3773C41.9374 28.7036 40.0718 30.5843 37.7889 30.5843H36.2724C35.2388 30.5843 34.3874 29.7324 34.3874 28.6768V27.8848C34.3874 26.8291 35.2388 25.9773 36.2724 25.9773H37.0508C37.6704 25.9773 38.1358 25.4591 38.1358 24.8698C38.1358 24.266 37.6864 23.7308 37.0508 23.7308C35.9815 23.7308 35.1343 22.8746 35.1343 21.8233C35.1343 20.7319 35.99 19.8843 37.0193 19.8843C37.6465 19.8843 38.1358 19.3859 38.1358 18.7768C38.1358 18.173 37.6864 17.6378 37.0508 17.6378C36.8223 17.6378 36.6374 17.447 36.6374 17.2378V15.0913Z" fill="#7E8D90" stroke="#7E8D90"/>
</svg>
