<svg width="134" height="43" viewBox="0 0 134 43" fill="none" xmlns="http://www.w3.org/2000/svg">
<g clip-path="url(#clip0)">
<path d="M7.22267 20.4989C7.76075 19.1494 8.11946 18.2722 8.29882 17.8703L10.4831 13.4141H14.2295L7.51189 27.4516H6.92468L-0.0273438 13.4141H3.95348C5.28725 16.1243 6.10886 17.8111 6.42129 18.4719C6.55436 18.7671 6.69028 19.082 6.82334 19.4193C6.95653 19.7567 7.05775 20.0181 7.12429 20.2037L7.22267 20.4989Z" fill="white"/>
<path d="M52.2795 27.2455L51.1422 25.2682H44.5907L43.4534 27.2455H39.4805L47.7451 13.208H48.2216L56.5039 27.2455H52.2795ZM45.9326 23.0038H49.8706C49.8267 22.9158 49.7595 22.7965 49.6746 22.6487C49.5899 22.501 49.5372 22.4044 49.5139 22.3589C49.2771 21.93 49.0344 21.4356 48.7918 20.8731C48.5491 20.3105 48.365 19.8561 48.2392 19.5037L48.0697 18.9753C47.6282 19.9214 47.2482 20.6799 46.9325 21.2509C46.605 21.8305 46.2717 22.4101 45.9326 23.0038Z" fill="white"/>
<path d="M95.6233 27.4574H91.2889L88.8311 23.5795L86.3358 27.4574H82.0195L86.7327 20.2717L82.3812 13.4199H86.5257L88.8482 17.03L91.2218 13.4199H95.3663L90.9636 20.2717L95.6233 27.4574Z" fill="white"/>
<path d="M133.999 27.4574H129.665L127.207 23.5795L124.712 27.4574H120.396L125.109 20.2717L120.757 13.4199H124.902L127.224 17.03L129.598 13.4199H133.742L129.34 20.2717L133.999 27.4574Z" fill="white"/>
</g>
<defs>
<clipPath id="clip0">
<rect width="134" height="42" fill="white" transform="translate(0 0.5)"/>
</clipPath>
</defs>
</svg>
