<svg width="47" height="27" viewBox="0 0 47 27" fill="none" xmlns="http://www.w3.org/2000/svg">
<path d="M4.42891 1.84802C15.4872 1.04011 27.041 0.661049 38.1344 1.29495C38.9327 1.34057 41.6178 1.44582 39.4143 1.78482C37.2089 2.12411 34.8786 1.98096 32.6511 2.19566C29.2715 2.52141 25.6007 2.70132 22.2218 2.70132C16.9346 2.70132 11.6655 2.41689 6.40416 2.41689C5.53386 2.41689 1.71943 2.13245 2.43788 2.13245C5.74748 2.13245 9.12805 2.13245 12.4563 2.13245C18.3351 2.13245 24.1544 2.98576 30.028 2.98576C33.7046 2.98576 44.6694 3.73691 41.0577 3.04897C35.5572 2.00125 29.3167 2.41689 23.723 2.41689C19.9148 2.41689 16.1065 2.41689 12.2983 2.41689C10.0463 2.41689 7.76345 2.93368 5.47184 2.98576C4.72979 3.00262 0.225237 3.55462 2.43788 3.55462" stroke="white" stroke-linecap="round" stroke-linejoin="round"/>
<path d="M2.72109 13.2254C13.7895 12.4621 24.8617 13.7943 35.9367 13.7943C38.2665 13.7943 45.2305 14.3708 42.9211 14.0629C37.41 13.3281 31.8084 13.1798 26.2659 12.4353C18.8298 11.4364 10.8211 11.2344 3.35317 11.2344C2.81715 11.2344 0.476623 11.6133 0.730055 11.74C1.63863 12.1943 3.16561 12.257 4.15907 12.3563C7.53846 12.6942 11.0119 12.2978 14.3829 12.6723C21.6143 13.4758 28.6954 14.0787 35.9999 14.0787C38.1805 14.0787 40.3612 14.0787 42.5419 14.0787C43.286 14.0787 47.107 13.2254 45.323 13.2254C37.3636 13.2254 29.4205 12.6565 21.4779 12.6565C17.9801 12.6565 14.4933 11.8856 11.0329 11.8032C8.2451 11.7369 5.50963 12.3721 2.72109 12.3721" stroke="white" stroke-linecap="round" stroke-linejoin="round"/>
<path d="M4.4276 24.8874C15.2401 24.4393 26.1733 24.603 36.9795 24.603C38.8616 24.603 40.7024 24.7955 42.5418 24.8874C43.4516 24.9329 45.9038 25.816 45.2597 25.1719C44.8445 24.7566 43.5449 24.8874 43.0474 24.8874C40.986 24.8874 38.9436 24.6526 36.8847 24.603C33.2996 24.5166 29.697 23.8942 26.1394 23.4653C19.4356 22.657 12.7962 22.8964 6.1342 22.8964C5.01664 22.8964 4.0175 23.104 2.94222 23.1808C1.25393 23.3014 0.359908 23.7497 2.65779 23.7497C6.11314 23.7497 9.56848 23.7497 13.0238 23.7497C22.9631 23.7497 32.664 26.0252 42.5418 26.0252C46.2769 26.0252 39.4215 25.4124 38.7335 25.3141C33.2958 24.5372 27.6752 24.9156 22.2047 24.1764C17.1255 23.49 10.0996 22.8223 5.28091 24.8874" stroke="white" stroke-linecap="round" stroke-linejoin="round"/>
</svg>
