<svg width="172" height="75" viewBox="0 0 172 75" fill="none" xmlns="http://www.w3.org/2000/svg">
<path d="M76.988 9.57914C54.2253 10.6955 30.7005 13.383 10.1778 23.9888C5.81013 26.2459 2.95203 30.411 2.54061 35.2535C1.99683 41.6539 8.43222 48.0696 13.2093 51.7789C29.8091 64.6686 52.9435 67.7663 73.2569 70.706C93.8787 73.6902 117.587 75.6044 138.26 71.8496C150.322 69.6587 167.785 66.4621 170.616 52.5795C175.894 26.6925 137.402 10.3774 117.156 5.91951C82.7845 -1.6486 39.5515 1.55632 10.8773 23.7601C2.17512 30.4986 -1.85237 45.0268 3.2985 54.4093C9.72078 66.1077 27.5589 67.532 39.0939 68.7618C57.3158 70.7045 76.1575 67.925 94.3027 66.1886C107.486 64.9271 120.942 63.8669 133.654 60.013C147.195 55.908 171.432 51.9192 171.432 33.7668C171.432 18.2747 146.182 12.3794 134.645 9.6363C102.6 2.01668 64.3343 -1.9367 31.8649 4.43282" stroke="#F3F3F3" stroke-linecap="round" stroke-linejoin="round"/>
</svg>
