<svg width="459" height="459" viewBox="0 0 459 459" fill="none" xmlns="http://www.w3.org/2000/svg">
<path d="M337.766 169.257C313.907 150.528 289.801 132.839 260.927 123.487C243.746 117.921 225.269 118.169 207.328 119.579C179.005 121.805 151.984 129.402 128.028 146.494C112.249 157.752 101.208 170.64 96.692 189.871C93.1108 205.122 92.4479 230.356 99.6278 244.552C106.967 259.064 117.747 273.124 129.172 284.189C142.914 297.498 161.087 302.832 177.756 311.122C208.067 326.197 241.76 332.324 274.664 338.341C309.503 344.711 355.256 335.12 366.836 294.45C373.51 271.009 378.03 238.402 364.537 216.855C358.2 206.736 353.667 198.108 345.337 189.348C336.873 180.446 327.255 174.481 317.581 167.088C307.16 159.125 293.115 153.311 281.485 147.417C264.422 138.769 246.644 135.297 227.803 133.315C185.636 128.879 130.923 127.237 93.6271 154.113C77.4223 165.79 64.4668 199.466 70.3779 219.374C75.32 236.019 81.3739 251.345 93.0438 263.618C102.505 273.568 114.583 283.042 125.369 291.548C136.669 300.46 148.257 306.193 160.303 313.56C170.144 319.579 182.076 326.806 193.006 330.625C222.856 341.057 254.453 345.201 286.159 342.44C305.186 340.783 325.213 338.129 341.972 326.73C361.219 313.638 364.625 297.352 366.975 274.863C368.287 262.295 367.501 245.293 363.13 233.568C359.499 223.829 355.842 214.181 352.21 204.469C349.66 197.65 344.747 191.907 342.103 185.08C339.799 179.132 337.643 173.034 334.724 167.405C332.316 162.765 323.06 150.327 326.607 154.057" stroke="white" stroke-linecap="round" stroke-linejoin="round"/>
<path d="M121.234 289.797C145.093 308.526 169.199 326.215 198.073 335.568C215.254 341.133 233.731 340.885 251.672 339.475C279.995 337.249 307.016 329.652 330.972 312.56C346.751 301.302 357.792 288.414 362.308 269.183C365.889 253.932 366.552 228.698 359.372 214.502C352.033 199.99 341.253 185.93 329.828 174.865C316.086 161.556 297.913 156.222 281.244 147.932C250.933 132.857 217.24 126.73 184.336 120.713C149.497 114.343 103.744 123.934 92.164 164.604C85.4898 188.045 80.9697 220.652 94.4635 242.199C100.8 252.318 105.333 260.946 113.663 269.706C122.127 278.608 131.745 284.573 141.419 291.966C151.84 299.929 165.885 305.743 177.515 311.637C194.578 320.285 212.356 323.757 231.197 325.739C273.364 330.175 328.077 331.817 365.373 304.941C381.578 293.264 394.533 259.588 388.622 239.68C383.68 223.035 377.626 207.709 365.956 195.436C356.495 185.486 344.417 176.012 333.631 167.506C322.331 158.594 310.743 152.861 298.697 145.494C288.856 139.475 276.924 132.248 265.994 128.429C236.144 117.997 204.547 113.853 172.841 116.614C153.814 118.271 133.787 120.925 117.028 132.324C97.7806 145.416 94.3749 161.702 92.0255 184.191C90.7126 196.759 91.4991 213.761 95.8704 225.486C99.501 235.225 103.158 244.873 106.79 254.585C109.34 261.405 114.253 267.147 116.898 273.974C119.201 279.922 121.357 286.02 124.276 291.649C126.684 296.289 135.94 308.728 132.393 304.997" stroke="white" stroke-linecap="round" stroke-linejoin="round"/>
</svg>
