<svg width="54" height="15" viewBox="0 0 54 15" fill="none" xmlns="http://www.w3.org/2000/svg">
<path d="M0.572149 5.81494C17.6809 5.74853 17.654 5.83985 34.7521 6.25951C35.587 6.28 43.6366 6.29 44.2199 5.81497" stroke="#B9C4AF" stroke-linecap="round" stroke-linejoin="round"/>
<path d="M37.91 2.53458C41.9187 2.94477 45.9274 3.35496 49.9361 3.76514C52.1222 3.98884 45.5574 3.2335 43.4377 2.65344C41.1552 2.02883 31.2786 -0.175524 39.2927 1.24644C41.1179 1.5703 49.005 3.68461 48.57 3.58068C46.5639 3.10139 44.8658 2.44217 42.7665 2.22735C40.1727 1.96195 52.0263 2.3504 52.9175 3.44476C53.7031 4.40941 45.4276 9.2556 44.9165 9.59558C44.0052 10.2017 38.921 13.0924 39.2389 13.1249" stroke="#B9C4AF" stroke-linecap="round" stroke-linejoin="round"/>
</svg>
