<svg width="118" height="10" viewBox="0 0 118 10" fill="none" xmlns="http://www.w3.org/2000/svg">
<path d="M0.599609 9.44967C29.9365 8.88222 59.307 7.73267 88.6467 7.73267C105.776 7.73267 54.3874 7.73267 37.2577 7.73267C27.085 7.73267 -3.30358 7.4828 6.77986 5.96797C18.6983 4.17747 31.0245 4.27531 43.0146 3.91711C61.9765 3.35062 81.046 2.8335 99.9912 4.10789C100.968 4.17359 109.748 5.27777 110.235 3.63094C110.721 1.98841 107.193 3.12411 105.663 2.96321C100.138 2.38218 94.6164 1.9767 89.07 1.72315C63.4204 0.55059 37.736 0.864643 12.0712 0.864643C-8.86854 0.864643 53.9705 0.192271 74.8893 1.2462C88.3874 1.92626 102.17 1.39977 115.611 3.01091C120.214 3.56268 114.518 3.44016 113.368 3.44016" stroke="#B9C4AF" stroke-linecap="round" stroke-linejoin="round"/>
</svg>
