<svg width="261" height="24" viewBox="0 0 261 24" fill="none" xmlns="http://www.w3.org/2000/svg">
<path d="M17.4345 11.4255C59.9011 12.4614 101.903 13.3728 144.086 18.8874C154.139 20.2017 164.186 19.7545 174.285 19.8201C184.696 19.8877 197.312 24.9166 207.06 21.0327C221.168 15.4117 238.527 18.1412 253.179 18.1412C285.973 18.1412 187.698 13.5552 155.011 10.3996C123.206 7.32914 91.0889 2.74449 59.1834 1.53864C47.8047 1.10859 36.7119 4.78158 25.3551 3.45072C23.1539 3.19277 11.9587 3.46691 18.5661 7.648C20.085 8.60919 21.7491 8.80185 23.4432 8.86055C33.213 9.19902 43.021 8.61397 52.7845 8.25428C75.8336 7.40515 98.9807 7.84013 122.002 6.20228C141.396 4.82242 160.268 4.23722 179.592 7.22827C192.169 9.17505 203.024 7.88789 215.566 6.38882C224.475 5.32401 233.374 5.16286 242.254 6.34218C245.561 6.78142 249.052 5.54938 252.399 5.54938C259.026 5.54938 239.202 3.93048 232.578 3.68391C198.969 2.43287 165.541 6.18807 131.99 3.21753C114.544 1.67281 97.0657 0.0500674 79.5896 2.75117C67.5879 4.60614 55.6127 7.79532 43.7324 10.5861C37.2498 12.1089 30.2686 12.4316 24.1846 15.5762C16.9836 19.2982 9.04509 21.1785 1.28125 22.3385" stroke="#2B4D49" stroke-width="2" stroke-linecap="round" stroke-linejoin="round"/>
</svg>
