<svg width="22" height="22" viewBox="0 0 22 22" fill="none" xmlns="http://www.w3.org/2000/svg">
<g clip-path="url(#clip0)">
<path d="M10.6591 11.2744C5.12502 11.2744 0.622559 15.7769 0.622559 21.311C0.622559 21.5518 0.818067 21.7474 1.05894 21.7474C1.29982 21.7474 1.49533 21.5518 1.49533 21.311C1.49533 16.2578 5.60596 12.1471 10.6592 12.1471C15.7123 12.1471 19.823 16.2578 19.823 21.311C19.823 21.5518 20.0185 21.7474 20.2594 21.7474C20.5002 21.7474 20.6957 21.5518 20.6957 21.311C20.6957 15.776 16.1932 11.2744 10.6591 11.2744Z" fill="white"/>
<path d="M10.6599 0.748047C8.01377 0.748047 5.85986 2.90109 5.85986 5.54813C5.85986 8.19517 8.01381 10.3482 10.6599 10.3482C13.3061 10.3482 15.46 8.19517 15.46 5.54813C15.46 2.90109 13.3061 0.748047 10.6599 0.748047ZM10.6599 9.47548C8.49466 9.47548 6.73259 7.71341 6.73259 5.54813C6.73259 3.38285 8.49466 1.62078 10.6599 1.62078C12.8252 1.62078 14.5873 3.38285 14.5873 5.54813C14.5873 7.71341 12.8252 9.47548 10.6599 9.47548Z" fill="white"/>
</g>
<defs>
<clipPath id="clip0">
<rect width="21" height="21" fill="white" transform="translate(0.158691 0.748047)"/>
</clipPath>
</defs>
</svg>
